<svg width="1998" height="1178" xmlns="http://www.w3.org/2000/svg" xmlns:xlink="http://www.w3.org/1999/xlink" xml:space="preserve" overflow="hidden"><g transform="translate(-990 -595)"><g><path d="M1482.33 1747.55 1493.06 1738.95 1495.92 1742.52 1485.2 1751.13ZM1496.63 1736.08 1507.36 1727.47 1510.22 1731.05 1499.5 1739.65ZM1510.93 1724.61 1521.66 1716 1524.53 1719.58 1513.8 1728.18ZM1525.23 1713.13 1535.96 1704.53 1538.83 1708.11 1528.1 1716.71ZM1539.53 1701.66 1550.26 1693.06 1553.13 1696.63 1542.4 1705.24ZM1553.83 1690.19 1564.56 1681.59 1567.43 1685.16 1556.7 1693.77ZM1568.13 1678.72 1578.86 1670.11 1581.73 1673.69 1571 1682.29ZM1582.43 1667.25 1593.16 1658.64 1596.03 1662.22 1585.3 1670.82ZM1596.73 1655.77 1607.46 1647.17 1610.33 1650.74 1599.6 1659.35ZM1611.03 1644.3 1621.76 1635.7 1624.63 1639.27 1613.9 1647.88ZM1625.33 1632.83 1636.06 1624.22 1638.93 1627.8 1628.2 1636.4ZM1639.64 1621.36 1650.36 1612.75 1653.23 1616.33 1642.5 1624.93ZM1653.94 1609.88 1664.66 1601.28 1667.53 1604.86 1656.8 1613.46ZM1668.24 1598.41 1678.96 1589.81 1681.83 1593.38 1671.1 1601.99ZM1682.54 1586.94 1693.26 1578.34 1696.13 1581.91 1685.4 1590.52ZM1696.84 1575.47 1707.56 1566.86 1710.43 1570.44 1699.7 1579.04ZM1711.14 1564 1721.86 1555.39 1724.73 1558.97 1714 1567.57ZM1725.44 1552.52 1736.16 1543.92 1739.03 1547.49 1728.31 1556.1ZM1739.74 1541.05 1750.46 1532.45 1753.33 1536.02 1742.61 1544.63ZM1754.04 1529.58 1764.76 1520.98 1767.63 1524.55 1756.91 1533.15ZM1768.34 1518.11 1779.06 1509.5 1781.93 1513.08 1771.21 1521.68ZM1782.64 1506.64 1793.36 1498.03 1796.23 1501.61 1785.51 1510.21ZM1796.94 1495.16 1807.66 1486.56 1810.53 1490.13 1799.81 1498.74ZM1811.24 1483.69 1821.96 1475.09 1824.83 1478.66 1814.11 1487.27ZM1825.54 1472.22 1836.26 1463.61 1839.13 1467.19 1828.41 1475.79ZM1839.84 1460.75 1850.57 1452.14 1853.43 1455.72 1842.71 1464.32ZM1854.14 1449.27 1864.87 1440.67 1867.73 1444.25 1857.01 1452.85ZM1868.44 1437.8 1879.17 1429.2 1882.03 1432.77 1871.31 1441.38ZM1882.74 1426.33 1893.47 1417.73 1896.33 1421.3 1885.61 1429.9ZM1897.04 1414.86 1907.77 1406.25 1910.63 1409.83 1899.91 1418.43ZM1911.34 1403.39 1922.07 1394.78 1924.94 1398.36 1914.21 1406.96ZM1925.64 1391.91 1936.37 1383.31 1939.24 1386.88 1928.51 1395.49ZM1939.94 1380.44 1950.67 1371.84 1953.54 1375.41 1942.81 1384.02ZM1954.24 1368.97 1964.97 1360.36 1967.84 1363.94 1957.11 1372.54ZM1968.54 1357.5 1979.27 1348.89 1982.14 1352.47 1971.41 1361.07ZM1982.84 1346.02 1993.57 1337.42 1996.44 1341 1985.71 1349.6ZM1997.14 1334.55 2007.87 1325.95 2010.74 1329.52 2000.01 1338.13ZM2011.44 1323.08 2022.17 1314.48 2025.04 1318.05 2014.31 1326.66ZM2025.74 1311.61 2036.47 1303 2039.34 1306.58 2028.61 1315.18ZM2040.05 1300.14 2050.77 1291.53 2053.64 1295.11 2042.91 1303.71ZM2054.35 1288.66 2065.07 1280.06 2067.94 1283.63 2057.21 1292.24ZM2068.65 1277.19 2079.37 1268.59 2082.24 1272.16 2071.51 1280.77ZM2082.95 1265.72 2093.67 1257.12 2096.54 1260.69 2085.81 1269.29ZM2097.25 1254.25 2107.97 1245.64 2110.84 1249.22 2100.11 1257.82ZM2111.55 1242.77 2122.27 1234.17 2125.14 1237.75 2114.41 1246.35ZM2125.85 1231.3 2136.57 1222.7 2139.44 1226.27 2128.72 1234.88ZM2140.15 1219.83 2150.87 1211.23 2153.74 1214.8 2143.02 1223.41ZM2154.45 1208.36 2165.17 1199.75 2168.04 1203.33 2157.32 1211.93ZM2168.75 1196.89 2179.47 1188.28 2182.34 1191.86 2171.62 1200.46ZM2183.05 1185.41 2193.77 1176.81 2196.64 1180.38 2185.92 1188.99ZM2197.35 1173.94 2208.07 1165.34 2210.94 1168.91 2200.22 1177.52ZM2211.65 1162.47 2222.37 1153.87 2225.24 1157.44 2214.52 1166.04ZM2225.95 1151 2236.67 1142.39 2239.54 1145.97 2228.82 1154.57ZM2240.25 1139.53 2250.98 1130.92 2253.84 1134.5 2243.12 1143.1ZM2254.55 1128.05 2265.28 1119.45 2268.14 1123.02 2257.42 1131.63ZM2268.85 1116.58 2273.07 1113.19 2275.94 1116.77 2271.72 1120.16ZM2242.68 1117.41 2278.06 1112.13 2265.24 1145.52C2264.78 1146.7 2263.46 1147.29 2262.27 1146.84 2261.09 1146.39 2260.5 1145.06 2260.96 1143.88L2272.37 1114.16 2274.85 1117.25 2243.36 1121.94C2242.11 1122.13 2240.94 1121.27 2240.75 1120.01 2240.57 1118.76 2241.43 1117.6 2242.68 1117.41Z" fill="#0070C0" fill-rule="nonzero" fill-opacity="1"/><path d="M3.4375-1.23781e-06 3.43785 979.308-3.43715 979.308-3.4375 1.23781e-06ZM13.7504 974.725 0.000360892 1002.23-13.7496 974.725Z" fill="#0070C0" fill-rule="nonzero" fill-opacity="1" transform="matrix(1 0 0 -1 1484.5 1744.73)"/><path d="M1484.5 1741.06 2556.95 1741.06 2556.95 1747.94 1484.5 1747.94ZM2552.36 1730.75 2579.86 1744.5 2552.36 1758.25Z" fill="#0070C0" fill-rule="nonzero" fill-opacity="1"/><path d="M0 390.259 16.9548 352.979 16.9548 373.965C88.3457 363.847 144.012 292.069 149.795 202.678 156.321 303.575 97.535 392.738 16.9548 404.158L16.9548 425.143Z" fill="#FFC000" fill-rule="evenodd" fill-opacity="1" transform="matrix(0.972749 -0.231861 -0.231861 -0.972749 2613.31 1744.63)"/><path d="M150.282 217.774C150.282 114.176 82.9986 30.1931 1.97946e-14 30.1931L0 0C82.9986-2.71394e-14 150.282 83.9829 150.282 187.581Z" fill="#CD9A00" fill-rule="evenodd" fill-opacity="1" transform="matrix(0.972749 -0.231861 -0.231861 -0.972749 2613.31 1744.63)"/><text fill="#00B050" fill-opacity="1" font-family="Aptos,Aptos_MSFontService,sans-serif" font-style="normal" font-variant="normal" font-weight="400" font-stretch="normal" font-size="83" text-anchor="start" direction="ltr" writing-mode="lr-tb" unicode-bidi="normal" text-decoration="none" transform="matrix(1 0 0 1 1051.05 764)">{B}</text><path d="M3.4375-1.23781e-06 3.43785 979.308-3.43715 979.308-3.4375 1.23781e-06ZM13.7504 974.725 0.000360892 1002.23-13.7496 974.725Z" fill="#00B050" fill-rule="nonzero" fill-opacity="1" transform="matrix(0.930754 -0.365646 -0.365646 -0.930754 1479.21 1747.97)"/><path d="M1477.96 1744.77 2476.14 1352.63 2478.66 1359.03 1480.47 1751.17ZM2468.1 1344.71 2498.73 1347.45 2478.16 1370.3Z" fill="#00B050" fill-rule="nonzero" fill-opacity="1"/><text fill="#0070C0" fill-opacity="1" font-family="Aptos,Aptos_MSFontService,sans-serif" font-style="normal" font-variant="normal" font-weight="400" font-stretch="normal" font-size="83" text-anchor="start" direction="ltr" writing-mode="lr-tb" unicode-bidi="normal" text-decoration="none" transform="matrix(1 0 0 1 1433.77 699)">{A}</text><text fill="#0070C0" fill-opacity="1" font-family="Cambria Math,Cambria Math_MSFontService,sans-serif" font-style="normal" font-variant="normal" font-weight="400" font-stretch="normal" font-size="83" text-anchor="start" direction="ltr" writing-mode="lr-tb" unicode-bidi="normal" text-decoration="none" transform="matrix(1 0 0 1 1590.08 845)"> </text><text fill="#0070C0" fill-opacity="1" font-family="Cambria Math,Cambria Math_MSFontService,sans-serif" font-style="normal" font-variant="normal" font-weight="400" font-stretch="normal" font-size="61" text-anchor="start" direction="ltr" writing-mode="lr-tb" unicode-bidi="normal" text-decoration="none" transform="matrix(1 0 0 1 1610.75 815)">𝐴</text><text fill="#0070C0" fill-opacity="1" font-family="Cambria Math,Cambria Math_MSFontService,sans-serif" font-style="normal" font-variant="normal" font-weight="400" font-stretch="normal" font-size="83" text-anchor="start" direction="ltr" writing-mode="lr-tb" unicode-bidi="normal" text-decoration="none" transform="matrix(1 0 0 1 1654.86 845)">𝑣</text><text fill="#0070C0" fill-opacity="1" font-family="Cambria Math,Cambria Math_MSFontService,sans-serif" font-style="normal" font-variant="normal" font-weight="400" font-stretch="normal" font-size="61" text-anchor="start" direction="ltr" writing-mode="lr-tb" unicode-bidi="normal" text-decoration="none" transform="matrix(1 0 0 1 1698.75 862)">𝐵</text><text fill="#0070C0" fill-opacity="1" font-family="Cambria Math,Cambria Math_MSFontService,sans-serif" font-style="normal" font-variant="normal" font-weight="400" font-stretch="normal" font-size="83" text-anchor="start" direction="ltr" writing-mode="lr-tb" unicode-bidi="normal" text-decoration="none" transform="matrix(1 0 0 1 1744.44 845)"> </text><text fill="#0070C0" fill-opacity="1" font-family="Cambria Math,Cambria Math_MSFontService,sans-serif" font-style="normal" font-variant="normal" font-weight="400" font-stretch="normal" font-size="83" text-anchor="start" direction="ltr" writing-mode="lr-tb" unicode-bidi="normal" text-decoration="none" transform="matrix(1 0 0 1 1762.78 845)">,</text><text fill="#0070C0" fill-opacity="1" font-family="Cambria Math,Cambria Math_MSFontService,sans-serif" font-style="normal" font-variant="normal" font-weight="400" font-stretch="normal" font-size="83" text-anchor="start" direction="ltr" writing-mode="lr-tb" unicode-bidi="normal" text-decoration="none" transform="matrix(1 0 0 1 1779.96 845)"> </text><text fill="#00B050" fill-opacity="1" font-family="Cambria Math,Cambria Math_MSFontService,sans-serif" font-style="normal" font-variant="normal" font-weight="400" font-stretch="normal" font-size="61" text-anchor="start" direction="ltr" writing-mode="lr-tb" unicode-bidi="normal" text-decoration="none" transform="matrix(1 0 0 1 1798.3 815)">𝐵</text><text fill="#00B050" fill-opacity="1" font-family="Cambria Math,Cambria Math_MSFontService,sans-serif" font-style="normal" font-variant="normal" font-weight="400" font-stretch="normal" font-size="83" text-anchor="start" direction="ltr" writing-mode="lr-tb" unicode-bidi="normal" text-decoration="none" transform="matrix(1 0 0 1 1843.99 845)">𝑣</text><text fill="#00B050" fill-opacity="1" font-family="Cambria Math,Cambria Math_MSFontService,sans-serif" font-style="normal" font-variant="normal" font-weight="400" font-stretch="normal" font-size="61" text-anchor="start" direction="ltr" writing-mode="lr-tb" unicode-bidi="normal" text-decoration="none" transform="matrix(1 0 0 1 1887.88 862)">𝐵</text><text fill="#FFC000" fill-opacity="1" font-family="Cambria Math,Cambria Math_MSFontService,sans-serif" font-style="normal" font-variant="normal" font-weight="400" font-stretch="normal" font-size="83" text-anchor="start" direction="ltr" writing-mode="lr-tb" unicode-bidi="normal" text-decoration="none" transform="matrix(1 0 0 1 2755.78 1546)"> </text><text fill="#FFC000" fill-opacity="1" font-family="Cambria Math,Cambria Math_MSFontService,sans-serif" font-style="normal" font-variant="normal" font-weight="400" font-stretch="normal" font-size="61" text-anchor="start" direction="ltr" writing-mode="lr-tb" unicode-bidi="normal" text-decoration="none" transform="matrix(1 0 0 1 2776.45 1515)">𝐴</text><text fill="#FFC000" fill-opacity="1" font-family="Cambria Math,Cambria Math_MSFontService,sans-serif" font-style="normal" font-variant="normal" font-weight="400" font-stretch="normal" font-size="83" text-anchor="start" direction="ltr" writing-mode="lr-tb" unicode-bidi="normal" text-decoration="none" transform="matrix(1 0 0 1 2820.56 1546)">𝑅</text><text fill="#FFC000" fill-opacity="1" font-family="Cambria Math,Cambria Math_MSFontService,sans-serif" font-style="normal" font-variant="normal" font-weight="400" font-stretch="normal" font-size="61" text-anchor="start" direction="ltr" writing-mode="lr-tb" unicode-bidi="normal" text-decoration="none" transform="matrix(1 0 0 1 2871.85 1562)">𝐵</text><path d="M1486.75 1742.38 1493.56 1730.44 1497.54 1732.71 1490.73 1744.65ZM1495.83 1726.46 1502.64 1714.51 1506.62 1716.78 1499.81 1728.73ZM1504.91 1710.53 1511.72 1698.58 1515.7 1700.85 1508.89 1712.8ZM1513.99 1694.6 1520.8 1682.66 1524.78 1684.93 1517.97 1696.87ZM1523.07 1678.68 1529.88 1666.73 1533.86 1669 1527.05 1680.95ZM1532.15 1662.75 1538.96 1650.8 1542.94 1653.07 1536.13 1665.02ZM1541.23 1646.82 1548.04 1634.88 1552.02 1637.15 1545.21 1649.09ZM1550.31 1630.9 1557.12 1618.95 1561.1 1621.22 1554.29 1633.17ZM1559.39 1614.97 1566.2 1603.02 1570.18 1605.29 1563.37 1617.24ZM1568.47 1599.04 1575.28 1587.1 1579.26 1589.37 1572.45 1601.31ZM1577.55 1583.11 1584.36 1571.17 1588.34 1573.44 1581.53 1585.39ZM1586.63 1567.19 1593.44 1555.24 1597.42 1557.51 1590.61 1569.46ZM1595.71 1551.26 1602.52 1539.32 1606.5 1541.59 1599.69 1553.53ZM1604.79 1535.33 1611.6 1523.39 1615.58 1525.66 1608.77 1537.6ZM1613.87 1519.41 1620.68 1507.46 1624.66 1509.73 1617.85 1521.68ZM1622.95 1503.48 1629.76 1491.54 1633.74 1493.81 1626.93 1505.75ZM1632.03 1487.55 1638.84 1475.61 1642.82 1477.88 1636.01 1489.82ZM1641.11 1471.63 1647.92 1459.68 1651.9 1461.95 1645.09 1473.9ZM1650.19 1455.7 1657 1443.76 1660.98 1446.03 1654.17 1457.97ZM1659.27 1439.77 1666.08 1427.83 1670.06 1430.1 1663.25 1442.04ZM1668.35 1423.85 1675.16 1411.9 1679.14 1414.17 1672.33 1426.12ZM1677.43 1407.92 1684.24 1395.98 1688.22 1398.25 1681.41 1410.19ZM1686.51 1391.99 1693.32 1380.05 1697.3 1382.32 1690.49 1394.26ZM1695.59 1376.07 1702.4 1364.12 1706.38 1366.39 1699.57 1378.34ZM1704.67 1360.14 1711.48 1348.19 1715.46 1350.46 1708.65 1362.41ZM1713.75 1344.21 1720.56 1332.27 1724.54 1334.54 1717.73 1346.48ZM1722.83 1328.29 1729.64 1316.34 1733.62 1318.61 1726.81 1330.56ZM1731.91 1312.36 1738.72 1300.41 1742.7 1302.68 1735.89 1314.63ZM1740.99 1296.43 1747.8 1284.49 1751.78 1286.76 1744.97 1298.7ZM1750.07 1280.51 1756.88 1268.56 1760.86 1270.83 1754.05 1282.78ZM1759.15 1264.58 1765.96 1252.63 1769.94 1254.9 1763.13 1266.85ZM1768.23 1248.65 1775.04 1236.71 1779.02 1238.98 1772.21 1250.92ZM1777.31 1232.73 1784.12 1220.78 1788.1 1223.05 1781.29 1235ZM1786.39 1216.8 1793.2 1204.85 1797.18 1207.12 1790.37 1219.07ZM1795.47 1200.87 1802.28 1188.93 1806.26 1191.2 1799.45 1203.14ZM1804.55 1184.95 1811.36 1173 1815.34 1175.27 1808.53 1187.22ZM1813.63 1169.02 1820.44 1157.07 1824.42 1159.34 1817.61 1171.29ZM1822.71 1153.09 1829.52 1141.15 1833.5 1143.42 1826.69 1155.36ZM1831.79 1137.16 1838.6 1125.22 1842.58 1127.49 1835.77 1139.43ZM1840.87 1121.24 1847.68 1109.29 1851.66 1111.56 1844.85 1123.51ZM1849.95 1105.31 1856.76 1093.37 1860.74 1095.64 1853.93 1107.58ZM1859.03 1089.38 1865.84 1077.44 1869.82 1079.71 1863.01 1091.65ZM1868.11 1073.46 1874.92 1061.51 1878.9 1063.78 1872.09 1075.73ZM1877.19 1057.53 1884 1045.59 1887.98 1047.86 1881.17 1059.8ZM1886.27 1041.6 1893.08 1029.66 1897.06 1031.93 1890.25 1043.87ZM1895.35 1025.68 1902.16 1013.73 1906.14 1016 1899.33 1027.95ZM1904.43 1009.75 1911.24 997.805 1915.22 1000.08 1908.41 1012.02ZM1913.51 993.824 1920.32 981.879 1924.3 984.149 1917.49 996.094ZM1922.59 977.897 1929.4 965.952 1933.38 968.222 1926.57 980.167ZM1931.67 961.97 1938.48 950.025 1942.46 952.295 1935.65 964.24ZM1940.75 946.043 1947.56 934.098 1951.54 936.368 1944.73 948.313ZM1949.83 930.117 1956.64 918.171 1960.62 920.441 1953.81 932.387ZM1958.91 914.19 1965.72 902.245 1969.7 904.515 1962.89 916.46ZM1967.99 898.263 1974.8 886.318 1978.78 888.588 1971.97 900.533ZM1977.07 882.336 1979.62 877.874 1983.6 880.144 1981.05 884.606ZM1952.91 892.964 1983.86 875.052 1984.22 910.815C1984.23 912.081 1983.22 913.117 1981.95 913.13 1980.68 913.142 1979.65 912.126 1979.64 910.861L1979.32 879.026 1982.76 880.986 1955.2 896.932C1954.11 897.565 1952.71 897.191 1952.07 896.096 1951.44 895 1951.81 893.598 1952.91 892.964Z" fill="#00B050" fill-rule="nonzero" fill-opacity="1"/><text fill="#0070C0" fill-opacity="1" font-family="Cambria Math,Cambria Math_MSFontService,sans-serif" font-style="normal" font-variant="normal" font-weight="400" font-stretch="normal" font-size="83" text-anchor="start" direction="ltr" writing-mode="lr-tb" unicode-bidi="normal" text-decoration="none" transform="matrix(1 0 0 1 2329.46 1129)"> </text><text fill="#0070C0" fill-opacity="1" font-family="Cambria Math,Cambria Math_MSFontService,sans-serif" font-style="normal" font-variant="normal" font-weight="400" font-stretch="normal" font-size="61" text-anchor="start" direction="ltr" writing-mode="lr-tb" unicode-bidi="normal" text-decoration="none" transform="matrix(1 0 0 1 2350.13 1099)">𝐴</text><text fill="#0070C0" fill-opacity="1" font-family="Cambria Math,Cambria Math_MSFontService,sans-serif" font-style="normal" font-variant="normal" font-weight="400" font-stretch="normal" font-size="83" text-anchor="start" direction="ltr" writing-mode="lr-tb" unicode-bidi="normal" text-decoration="none" transform="matrix(1 0 0 1 2394.24 1129)">𝑣</text><text fill="#0070C0" fill-opacity="1" font-family="Cambria Math,Cambria Math_MSFontService,sans-serif" font-style="normal" font-variant="normal" font-weight="400" font-stretch="normal" font-size="61" text-anchor="start" direction="ltr" writing-mode="lr-tb" unicode-bidi="normal" text-decoration="none" transform="matrix(1 0 0 1 2434.02 1146)">𝐴</text><text fill="#FFC000" fill-opacity="1" font-family="Cambria Math,Cambria Math_MSFontService,sans-serif" font-style="normal" font-variant="normal" font-weight="400" font-stretch="normal" font-size="83" text-anchor="start" direction="ltr" writing-mode="lr-tb" unicode-bidi="normal" text-decoration="none" transform="matrix(1 0 0 1 2227.65 845)"> </text><text fill="#FFC000" fill-opacity="1" font-family="Cambria Math,Cambria Math_MSFontService,sans-serif" font-style="normal" font-variant="normal" font-weight="400" font-stretch="normal" font-size="61" text-anchor="start" direction="ltr" writing-mode="lr-tb" unicode-bidi="normal" text-decoration="none" transform="matrix(1 0 0 1 2248.32 815)">𝐴</text><text fill="#FFC000" fill-opacity="1" font-family="Cambria Math,Cambria Math_MSFontService,sans-serif" font-style="normal" font-variant="normal" font-weight="400" font-stretch="normal" font-size="83" text-anchor="start" direction="ltr" writing-mode="lr-tb" unicode-bidi="normal" text-decoration="none" transform="matrix(1 0 0 1 2292.43 845)">𝑅</text><text fill="#FFC000" fill-opacity="1" font-family="Cambria Math,Cambria Math_MSFontService,sans-serif" font-style="normal" font-variant="normal" font-weight="400" font-stretch="normal" font-size="61" text-anchor="start" direction="ltr" writing-mode="lr-tb" unicode-bidi="normal" text-decoration="none" transform="matrix(1 0 0 1 2343.72 862)">𝐵</text><path d="M1656.2 1606.56C1685.32 1623.53 1705.5 1679.8 1705.5 1744" stroke="#0070C0" stroke-width="6.875" stroke-linecap="butt" stroke-linejoin="miter" stroke-miterlimit="8" stroke-opacity="1" fill="none" fill-rule="evenodd"/><path d="M1565.63 1597.63C1587.66 1618.5 1607.64 1651.86 1620.7 1689.57" stroke="#00B050" stroke-width="6.875" stroke-linecap="butt" stroke-linejoin="miter" stroke-miterlimit="8" stroke-opacity="1" fill="none" fill-rule="evenodd"/><path d="M1574.05 1580.14C1601.78 1606.1 1623.95 1641.89 1636.98 1681.76" stroke="#00B050" stroke-width="6.875" stroke-linecap="butt" stroke-linejoin="miter" stroke-miterlimit="8" stroke-opacity="1" fill="none" fill-rule="evenodd"/><path d="M1670.63 1589.87C1707.08 1607.22 1731.81 1672.3 1729.33 1744.33" stroke="#0070C0" stroke-width="6.875" stroke-linecap="butt" stroke-linejoin="miter" stroke-miterlimit="8" stroke-opacity="1" fill="none" fill-rule="evenodd"/><path d="M0 390.259 16.9548 352.979 16.9548 373.965C88.3457 363.847 144.012 292.069 149.795 202.678 156.321 303.575 97.535 392.738 16.9548 404.158L16.9548 425.143Z" fill="#FFC000" fill-rule="evenodd" fill-opacity="1" transform="matrix(0.638569 -0.769565 -0.769565 -0.638569 2291.24 1118.84)"/><path d="M150.282 217.774C150.282 114.176 82.9986 30.1931 1.97946e-14 30.1931L0 0C82.9986-2.71394e-14 150.282 83.9829 150.282 187.581Z" fill="#CD9A00" fill-rule="evenodd" fill-opacity="1" transform="matrix(0.638569 -0.769565 -0.769565 -0.638569 2291.24 1118.84)"/></g></g></svg>